# AST/ASF file generated using VICON BodyLanguage
# -----------------------------------------------
:version 1.10
:name VICON
:units
  mass 1.0
  length 0.45
  angle deg
:documentation
   .ast/.asf automatically generated from VICON data using
   VICON BodyBuilder and BodyLanguage model FoxedUp or BRILLIANT.MOD
:root
   order TX TY TZ RX RY RZ
   axis XYZ
   position 0 0 0  
   orientation 0 0 0 
:bonedata
  begin
     id 1 
     name lhipjoint
     direction 0.621036 -0.695554 0.361275 
     length 2.46325 
     axis 0 0 0  XYZ
  end
  begin
     id 2 
     name lfemur
     direction 0.34202 -0.939693 0  
     length 6.54784  
     axis 0 0 20  XYZ
    dof rx ry rz
    limits (-160.0 20.0)
           (-70.0 70.0)
           (-60.0 70.0)
  end
  begin
     id 3 
     name ltibia
     direction 0.34202 -0.939693 0   
     length 7.84737   
     axis 0 0 20   XYZ
    dof rx
    limits (-10.0 170.0)
  end
  begin
     id 4 
     name lfoot
     direction 0.0790693 -0.217241 0.97291   
     length 2.59747   
     axis -90 7.62852e-016 20   XYZ
    dof rx rz
    limits (-45.0 90.0)
           (-70.0 20.0)
  end
  begin
     id 5 
     name ltoes
     direction 1.53572e-011 -4.21898e-011 1   
     length 1.29919   
     axis -90 7.62852e-016 20   XYZ
    dof rx
    limits (-90.0 20.0)
  end
  begin
     id 6 
     name rhipjoint
     direction -0.602353 -0.708375 0.367935   
     length 2.41867  
     axis 0 0 0  XYZ 
  end
  begin
     id 7 
     name rfemur
     direction -0.34202 -0.939693 0   
     length 6.92065   
     axis 0 0 -20   XYZ
    dof rx ry rz
    limits (-160.0 20.0)
           (-70.0 70.0)
           (-70.0 60.0)
  end
  begin
     id 8 
     name rtibia
     direction -0.34202 -0.939693 0   
     length 7.88883   
     axis 0 0 -20   XYZ
    dof rx
    limits (-10.0 170.0)
 end
 begin
     id 9 
     name rfoot
     direction -0.0768692 -0.211196 0.974416   
     length 2.43714  
     axis -90 -7.62852e-016 -20   XYZ
    dof rx rz
    limits (-45.0 90.0)
           (-20.0 70.0)
  end
  begin
     id 10 
     name rtoes
     direction -1.53575e-011 -4.21933e-011 1   
     length 1.22113   
     axis -90 -7.62852e-016 -20   XYZ
    dof rx
    limits (-90.0 20.0)
  end
  begin
     id 11 
     name lowerback
     direction 0.0197937 0.98943 -0.143655   
     length 2.16931   
     axis 0 0 0   XYZ
    dof rx ry rz
    limits (-20.0 45.0)
           (-30.0 30.0)
           (-30.0 30.0)
  end
  begin
     id 12 
     name upperback
     direction -0.00183968 0.999975 0.00684288   
     length 2.17221   
     axis 0 0 0   XYZ
    dof rx ry rz
    limits (-20.0 45.0)
           (-30.0 30.0)
           (-30.0 30.0)
  end
  begin
     id 13 
     name thorax
     direction -0.00950244 0.997208 0.0740685   
     length 2.22549   
     axis 0 0 0   XYZ
    dof rx ry rz
    limits (-20.0 45.0)
           (-30.0 30.0)
           (-30.0 30.0)
  end
  begin
     id 14 
     name lowerneck
     direction 0.0218238 0.996215 0.0841425   
     length 1.77269   
     axis 0 0 0   XYZ
    dof rx ry rz
    limits (-20.0 45.0)
           (-30.0 30.0)
           (-30.0 30.0)
  end
  begin
     id 15 
     name upperneck
     direction -0.00430652 0.994214 -0.107332   
     length 1.76534   
     axis 0 0 0   XYZ
    dof rx ry rz
    limits (-20.0 45.0)
           (-30.0 30.0)
           (-30.0 30.0)
  end
  begin
     id 16
     name head
     direction -0.00328946 0.998959 -0.0454998  
     length 1.82634  
     axis 0 0 0   XYZ
    dof rx ry rz
    limits (-20.0 45.0)
           (-30.0 30.0)
           (-30.0 30.0)
  end
  begin
     id 17 
     name lclavicle
     direction 0.970962 0.239191 0.00450212  
     length 3.84872  
     axis 0 0 0   XYZ
    dof ry rz
    limits (-20.0 10.0)
           (0.0 20.0)
  end
  begin
     id 18 
     name lhumerus
     direction 1 -4.48966e-011 5.74696e-028   
     length 5.22771   
     axis 180 -30 -90   XYZ
    dof rx ry rz
    limits (-60.0 90.0)
           (-90.0 90.0)
           (-90.0 90.0)
  end
  begin
     id 19
     name lradius
     direction 1 -4.4896e-011 4.25109e-027   
     length 3.45251   
     axis 180 -30 -90   XYZ
    dof rx
    limits (-10.0 170.0)
  end
  begin
     id 20
     name lwrist
     direction 1 -4.48971e-011 1.15382e-027   
     length 1.72626   
     axis -5.52449e-016 90 90   XYZ
    dof ry
    limits (-180.0 0.0)
 end
  begin
     id 21 
     name lhand
     direction 1 -4.49034e-011 2.30765e-027   
     length 0.552119   
     axis -1.47248e-015 90 90   XYZ
    dof rx rz
    limits (-90.0 90.0)
           (-45.0 45.0)
  end
  begin
     id 22 
     name lfingers
     direction 1 -4.48951e-011 4.61529e-027   
     length 0.445133   
     axis -2.94495e-015 90 90   XYZ
    dof rx
    limits (0.0 90.0)
  end
  begin
     id 23
     name lthumb
     direction 0.707107 -6.34991e-011 0.707107   
     length 0.639124   
     axis -90 45 2.85299e-015   XYZ
    dof rx rz
    limits (-45.0 45.0)
           (-45.0 45.0)
  end
  begin
     id 24 
     name rclavicle
     direction -0.97424 0.222511 -0.0366699   
     length 3.73439  
     axis 0 0 0   XYZ 
    dof ry rz
    limits (-10.0 20.0)
           (-20.0 0.0)
  end
  begin
     id 25 
     name rhumerus
     direction -1 -4.48956e-011 -4.97258e-028  
     length 5.2398   
     axis 180 30 90   XYZ
    dof rx ry rz
    limits (-90.0 60.0)
           (-90.0 90.0)
           (-90.0 90.0)
  end
  begin
     id 26 
     name rradius
     direction -1 -4.4897e-011 -1.72611e-027   
     length 3.48042   
     axis 180 30 90   XYZ
    dof rx
    limits (-10.0 170.0)
  end
  begin
     id 27 
     name rwrist
     direction -1 -4.48976e-011 1.15382e-027   
     length 1.74021   
     axis -5.52449e-016 -90 -90   XYZ
    dof ry
    limits (-180.0 0.0)
  end
  begin
     id 28
     name rhand
     direction -1 -4.48963e-011 2.30765e-027   
     length 0.618713   
     axis -1.47248e-015 -90 -90   XYZ
    dof rx rz
    limits (-90.0 90.0)
           (-45.0 45.0)
  end
  begin
     id 29
     name rfingers
     direction -1 -4.4888e-011 4.61529e-027   
     length 0.498823   
     axis -2.94495e-015 -90 -90   XYZ
    dof rx
    limits (0.0 90.0)
  end
  begin
     id 30
     name rthumb
     direction -0.707107 -6.34968e-011 0.707107   
     length 0.716213   
     axis -90 -45 -2.85299e-015   XYZ
    dof rx rz
    limits (-45.0 45.0)
           (-45.0 45.0)
  end
:hierarchy
  begin
    root lhipjoint rhipjoint lowerback
    lhipjoint lfemur
    lfemur ltibia
    ltibia lfoot
    lfoot ltoes
    rhipjoint rfemur
    rfemur rtibia
    rtibia rfoot
    rfoot rtoes
    lowerback upperback
    upperback thorax
    thorax lowerneck lclavicle rclavicle
    lowerneck upperneck
    upperneck head
    lclavicle lhumerus
    lhumerus lradius
    lradius lwrist
    lwrist lhand lthumb
    lhand lfingers
    rclavicle rhumerus
    rhumerus rradius
    rradius rwrist
    rwrist rhand rthumb
    rhand rfingers
  end

#!OML:ASF G:\JayActor3\Patient Classification 1\Patient 1\Session 5\male.ASF
:FULLY-SPECIFIED
:DEGREES
46
root -38.9414 17.0681 -21.0989 -0.173948 47.7256 -6.43771
lowerback 1.24154 -1.29486 3.48821
upperback 1.30938 -1.69653 0.522982
thorax 0.561673 -0.820631 -1.40382
lowerneck -6.37441 -0.185552 1.22438
upperneck 7.3614 -0.486481 1.53488
head 3.50747 -0.136193 0.26444
rclavicle -6.21202e-015 -1.15295e-014
rhumerus -31.7662 -10.8162 -86.5427
rradius 22.5946
rwrist 8.07325
rhand -19.383 -6.97406
rfingers 7.12502
rthumb 6.9354 -36.8404
lclavicle -6.21202e-015 -1.15295e-014
lhumerus -27.6212 23.2383 79.6412
lradius 12.8864
lwrist 3.85155
lhand -20.6383 16.0811
lfingers 7.12502
lthumb 5.72355 45.9838
rfemur -8.82418 5.37501 28.8427
rtibia 27.7555
rfoot -27.9586 -12.8259
rtoes 14.1588
lfemur -1.85311 4.2915 -18.43
ltibia 15.2002
lfoot -17.9108 1.66702
ltoes 4.32373
47
root -38.9379 17.0675 -21.0978 -0.161444 47.7223 -6.44492
lowerback 1.23175 -1.29467 3.48937
upperback 1.31063 -1.69673 0.520385
thorax 0.568323 -0.820595 -1.40738
lowerneck -6.37037 -0.181199 1.229
upperneck 7.34886 -0.481068 1.53776
head 3.5023 -0.133416 0.264819
rclavicle 4.30866e-014 3.97569e-016
rhumerus -31.7629 -10.8119 -86.552
rradius 22.5931
rwrist 8.07583
rhand -19.3766 -6.96917
rfingers 7.12502
rthumb 6.9416 -36.8354
lclavicle 4.30866e-014 3.97569e-016
lhumerus -27.6193 23.2688 79.6446
lradius 12.865
lwrist 3.80042
lhand -20.6466 16.0861
lfingers 7.12502
lthumb 5.71558 45.989
rfemur -8.82625 5.37488 28.8392
rtibia 27.7523
rfoot -27.9396 -12.8654
rtoes 13.9839
lfemur -1.85876 4.31838 -18.4271
ltibia 15.2004
lfoot -17.9351 1.64742
ltoes 4.29017
48
root -38.9344 17.0669 -21.0968 -0.149446 47.7178 -6.45255
lowerback 1.22287 -1.29437 3.49055
upperback 1.31209 -1.69676 0.518343
thorax 0.574697 -0.820477 -1.41038
lowerneck -6.36694 -0.176331 1.23309
upperneck 7.3387 -0.474979 1.54088
head 3.49807 -0.130279 0.265405
rclavicle -7.98617e-014 9.54166e-015
rhumerus -31.7611 -10.8057 -86.5618
rradius 22.592
rwrist 8.07688
rhand -19.3696 -6.96676
rfingers 7.12502
rthumb 6.94837 -36.8327
lclavicle -7.98617e-014 9.54166e-015
lhumerus -27.6199 23.3031 79.6463
lradius 12.8424
lwrist 3.74489
lhand -20.656 16.0922
lfingers 7.12502
lthumb 5.7065 45.9954
rfemur -8.82866 5.37663 28.8362
rtibia 27.7491
rfoot -27.9199 -12.9057
rtoes 13.8137
lfemur -1.86456 4.34339 -18.4242
ltibia 15.2003
lfoot -17.9573 1.62967
ltoes 4.26128
49
root -38.9311 17.0665 -21.096 -0.137013 47.7127 -6.46018
lowerback 1.2139 -1.29385 3.49203
upperback 1.31396 -1.6965 0.516147
thorax 0.581553 -0.820197 -1.41371
lowerneck -6.3634 -0.171222 1.23934
upperneck 7.328 -0.468616 1.54221
head 3.49363 -0.127028 0.265037
rclavicle -6.40087e-014 5.1684e-015
rhumerus -31.7598 -10.8012 -86.5718
rradius 22.5899
rwrist 8.07827
rhand -19.3624 -6.96291
rfingers 7.12502
rthumb 6.9553 -36.8286
lclavicle -6.40087e-014 5.1684e-015
lhumerus -27.6218 23.338 79.6469
lradius 12.8196
lwrist 3.68639
lhand -20.6655 16.1024
lfingers 7.12502
lthumb 5.69735 46.0058
rfemur -8.83273 5.37888 28.8334
rtibia 27.7463
rfoot -27.8976 -12.948
rtoes 13.6416
lfemur -1.87113 4.36738 -18.4215
ltibia 15.1997
lfoot -17.9765 1.61256
ltoes 4.23337
50
root -38.9277 17.066 -21.0952 -0.123603 47.707 -6.46682
lowerback 1.20572 -1.29322 3.49257
upperback 1.31564 -1.69606 0.514335
thorax 0.587813 -0.81985 -1.41609
lowerneck -6.36004 -0.165595 1.2453
upperneck 7.31901 -0.461532 1.54322
head 3.48982 -0.123421 0.264652
rclavicle -4.84538e-014 3.18055e-015
rhumerus -31.7606 -10.7955 -86.5816
rradius 22.5882
rwrist 8.07904
rhand -19.3547 -6.96107
rfingers 7.12502
rthumb 6.96278 -36.8266
lclavicle -4.84538e-014 3.18055e-015
lhumerus -27.6264 23.3805 79.6442
lradius 12.795
lwrist 3.61845
lhand -20.6742 16.1155
lfingers 7.12502
lthumb 5.68893 46.0192
rfemur -8.83773 5.37915 28.8288
rtibia 27.7437
rfoot -27.8733 -12.9858
rtoes 13.4716
lfemur -1.87833 4.39131 -18.4198
ltibia 15.1985
lfoot -17.9931 1.59522
ltoes 4.20833
51
root -38.9244 17.0657 -21.0946 -0.109242 47.7011 -6.47256
lowerback 1.19734 -1.29241 3.49296
upperback 1.31795 -1.6954 0.512151
thorax 0.594834 -0.819374 -1.4188
lowerneck -6.35863 -0.159731 1.25216
upperneck 7.31203 -0.454296 1.54438
head 3.48708 -0.119677 0.264171
rclavicle -1.07344e-014 1.19271e-015
rhumerus -31.7617 -10.7918 -86.5916
rradius 22.5857
rwrist 8.08121
rhand -19.3471 -6.95918
rfingers 7.12502
rthumb 6.97014 -36.8244
lclavicle -1.07344e-014 1.19271e-015
lhumerus -27.6308 23.4166 79.6433
lradius 12.771
lwrist 3.55536
lhand -20.6837 16.1314
lfingers 7.12502
lthumb 5.67978 46.0352
rfemur -8.84423 5.37994 28.8238
rtibia 27.7414
rfoot -27.8471 -13.0258
rtoes 13.3025
lfemur -1.88628 4.41601 -18.4189
ltibia 15.1968
lfoot -18.0067 1.57625
ltoes 4.18713
52
root -38.9212 17.0654 -21.094 -0.0947759 47.6948 -6.47865
lowerback 1.18909 -1.29145 3.49378
upperback 1.32035 -1.69454 0.510051
thorax 0.601883 -0.818788 -1.42165
lowerneck -6.35713 -0.153069 1.26052
upperneck 7.30563 -0.445991 1.54369
head 3.48452 -0.115432 0.262877
rclavicle 4.99943e-014 -2.34566e-014
rhumerus -31.7638 -10.789 -86.6018
rradius 22.5822
rwrist 8.08436
rhand -19.3383 -6.95624
rfingers 7.12502
rthumb 6.97858 -36.8212
lclavicle 4.99943e-014 -2.34566e-014
lhumerus -27.6369 23.4538 79.6412
lradius 12.7476
lwrist 3.49089
lhand -20.6928 16.1518
lfingers 7.12502
lthumb 5.67093 46.0559
rfemur -8.85204 5.38282 28.8195
rtibia 27.7396
rfoot -27.8194 -13.0689
rtoes 13.1348
lfemur -1.89503 4.44009 -18.418
ltibia 15.1945
lfoot -18.0176 1.55803
ltoes 4.16752
53
root -38.918 17.0652 -21.0935 -0.0802234 47.6883 -6.48443
lowerback 1.18169 -1.29011 3.49464
upperback 1.323 -1.69313 0.5081
thorax 0.608731 -0.817929 -1.42437
lowerneck -6.3576 -0.146053 1.26994
upperneck 7.30085 -0.437306 1.54209
head 3.4829 -0.11098 0.261118
rclavicle -8.31417e-014 8.74653e-015
rhumerus -31.7666 -10.787 -86.6118
rradius 22.5781
rwrist 8.08778
rhand -19.3292 -6.9545
rfingers 7.12502
rthumb 6.98736 -36.8192
lclavicle -8.31417e-014 8.74653e-015
lhumerus -27.6444 23.4944 79.6374
lradius 12.7245
lwrist 3.42022
lhand -20.7008 16.1768
lfingers 7.12502
lthumb 5.66326 46.0811
rfemur -8.86079 5.38654 28.8152
rtibia 27.7383
rfoot -27.7906 -13.1141
rtoes 12.9681
lfemur -1.90401 4.46392 -18.4177
ltibia 15.192
lfoot -18.0254 1.53996
ltoes 4.14951
54
root -38.9149 17.0651 -21.0931 -0.0653239 47.6816 -6.48959
lowerback 1.17474 -1.28849 3.4954
upperback 1.32585 -1.69133 0.506019
thorax 0.615565 -0.816873 -1.42715
lowerneck -6.35684 -0.138902 1.28044
upperneck 7.29557 -0.428381 1.53893
head 3.48087 -0.106457 0.258667
rclavicle -4.53229e-014 1.31198e-014
rhumerus -31.7707 -10.7863 -86.6215
rradius 22.5734
rwrist 8.09237
rhand -19.3187 -6.95194
rfingers 7.12502
rthumb 6.99752 -36.8163
lclavicle -4.53229e-014 1.31198e-014
lhumerus -27.6529 23.5363 79.6322
lradius 12.7012
lwrist 3.34724
lhand -20.709 16.2051
lfingers 7.12502
lthumb 5.65532 46.1096
rfemur -8.87057 5.39067 28.8106
rtibia 27.7378
rfoot -27.7602 -13.1609
rtoes 12.8022
lfemur -1.91328 4.48739 -18.418
ltibia 15.1889
lfoot -18.0302 1.52129
ltoes 4.13455
55
root -38.9119 17.065 -21.0929 -0.0506883 47.6755 -6.495
lowerback 1.16883 -1.28696 3.49625
upperback 1.32871 -1.68961 0.504596
thorax 0.621833 -0.815863 -1.42929
lowerneck -6.35669 -0.13153 1.28995
upperneck 7.29187 -0.419072 1.53541
head 3.4795 -0.101766 0.256296
rclavicle -5.56597e-014 9.54166e-015
rhumerus -31.7753 -10.7867 -86.6302
rradius 22.5672
rwrist 8.09893
rhand -19.308 -6.95108
rfingers 7.12502
rthumb 7.00782 -36.8151
lclavicle -5.56597e-014 9.54166e-015
lhumerus -27.6627 23.5797 79.6266
lradius 12.6787
lwrist 3.2725
lhand -20.7145 16.2396
lfingers 7.12502
lthumb 5.65 46.1443
rfemur -8.88148 5.39513 28.8063
rtibia 27.738
rfoot -27.728 -13.21
rtoes 12.6359
lfemur -1.92286 4.51121 -18.4184
ltibia 15.1852
lfoot -18.0323 1.50207
ltoes 4.12085
